<mxfile host="app.diagrams.net" modified="2024-05-27T10:48:19.994Z" agent="Mozilla/5.0 (Windows NT 10.0; Win64; x64) AppleWebKit/537.36 (KHTML, like Gecko) Chrome/125.0.0.0 Safari/537.36 Edg/125.0.0.0" etag="KMW90V4XAPeSz_5GhaaZ" version="24.4.4" type="device">
  <diagram name="Page-1" id="k7VkfPEBs9ju9SRipZGe">
    <mxGraphModel dx="794" dy="509" grid="1" gridSize="10" guides="1" tooltips="1" connect="1" arrows="1" fold="1" page="1" pageScale="1" pageWidth="827" pageHeight="1169" math="0" shadow="0">
      <root>
        <mxCell id="0" />
        <mxCell id="1" parent="0" />
        <mxCell id="vnd5Rq-gmxk2DfNvCq53-1" value="Equipe dirigeante" style="shape=umlActor;verticalLabelPosition=bottom;verticalAlign=top;html=1;outlineConnect=0;" vertex="1" parent="1">
          <mxGeometry x="230" y="210" width="30" height="60" as="geometry" />
        </mxCell>
        <mxCell id="vnd5Rq-gmxk2DfNvCq53-2" value="" style="rounded=1;whiteSpace=wrap;html=1;" vertex="1" parent="1">
          <mxGeometry x="390" y="40" width="320" height="330" as="geometry" />
        </mxCell>
        <mxCell id="vnd5Rq-gmxk2DfNvCq53-5" value="Professeur-principal" style="shape=umlActor;verticalLabelPosition=bottom;verticalAlign=top;html=1;outlineConnect=0;" vertex="1" parent="1">
          <mxGeometry x="170" y="640" width="30" height="60" as="geometry" />
        </mxCell>
        <mxCell id="vnd5Rq-gmxk2DfNvCq53-6" value="&lt;h1 style=&quot;margin-top: 0px; font-size: 13px;&quot;&gt;&lt;span style=&quot;font-weight: normal;&quot;&gt;saisir un nouvel élève&amp;nbsp;&lt;/span&gt;&lt;/h1&gt;" style="text;html=1;whiteSpace=wrap;overflow=hidden;rounded=0;" vertex="1" parent="1">
          <mxGeometry x="430" y="70" width="240" height="30" as="geometry" />
        </mxCell>
        <mxCell id="vnd5Rq-gmxk2DfNvCq53-7" value="&lt;h1 style=&quot;margin-top: 0px; font-size: 13px;&quot;&gt;&lt;span style=&quot;font-weight: normal;&quot;&gt;&amp;nbsp;Saisir un professeur et ses matières&lt;/span&gt;&lt;/h1&gt;" style="text;html=1;whiteSpace=wrap;overflow=hidden;rounded=0;" vertex="1" parent="1">
          <mxGeometry x="430" y="100" width="180" height="40" as="geometry" />
        </mxCell>
        <mxCell id="vnd5Rq-gmxk2DfNvCq53-8" value="Saisir une nouvelle classe" style="text;html=1;whiteSpace=wrap;overflow=hidden;rounded=0;" vertex="1" parent="1">
          <mxGeometry x="430" y="140" width="180" height="30" as="geometry" />
        </mxCell>
        <mxCell id="vnd5Rq-gmxk2DfNvCq53-9" value="Saisir un emploi du temps pour une classe*" style="text;html=1;whiteSpace=wrap;overflow=hidden;rounded=0;" vertex="1" parent="1">
          <mxGeometry x="430" y="170" width="180" height="40" as="geometry" />
        </mxCell>
        <mxCell id="vnd5Rq-gmxk2DfNvCq53-10" value="*&lt;div&gt;&lt;span style=&quot;background-color: initial;&quot;&gt;-ajouter une semaine type&lt;/span&gt;&lt;/div&gt;&lt;div&gt;&lt;span style=&quot;background-color: initial;&quot;&gt;-Modifier une semaine type ou la modifier&lt;/span&gt;&lt;/div&gt;" style="rounded=1;whiteSpace=wrap;html=1;align=left;" vertex="1" parent="1">
          <mxGeometry x="430" y="210" width="240" height="60" as="geometry" />
        </mxCell>
        <mxCell id="vnd5Rq-gmxk2DfNvCq53-11" value="&lt;h1 style=&quot;margin-top: 0px;&quot;&gt;&lt;font style=&quot;font-size: 13px; font-weight: normal;&quot;&gt;Saisir des dates de vacances&lt;/font&gt;&lt;/h1&gt;" style="text;html=1;whiteSpace=wrap;overflow=hidden;rounded=0;" vertex="1" parent="1">
          <mxGeometry x="430" y="280" width="240" height="30" as="geometry" />
        </mxCell>
        <mxCell id="vnd5Rq-gmxk2DfNvCq53-12" value="&lt;h1 style=&quot;margin-top: 0px;&quot;&gt;&lt;font style=&quot;font-size: 13px; font-weight: normal;&quot;&gt;Saisir des dates de conseil de classe&lt;/font&gt;&lt;/h1&gt;" style="text;html=1;whiteSpace=wrap;overflow=hidden;rounded=0;" vertex="1" parent="1">
          <mxGeometry x="430" y="320" width="240" height="60" as="geometry" />
        </mxCell>
        <mxCell id="vnd5Rq-gmxk2DfNvCq53-13" value="" style="rounded=1;whiteSpace=wrap;html=1;" vertex="1" parent="1">
          <mxGeometry x="350" y="440" width="400" height="340" as="geometry" />
        </mxCell>
        <mxCell id="vnd5Rq-gmxk2DfNvCq53-15" value="" style="endArrow=classic;html=1;rounded=0;" edge="1" parent="1">
          <mxGeometry width="50" height="50" relative="1" as="geometry">
            <mxPoint x="260" y="220" as="sourcePoint" />
            <mxPoint x="390" y="220" as="targetPoint" />
          </mxGeometry>
        </mxCell>
        <mxCell id="vnd5Rq-gmxk2DfNvCq53-16" value="" style="endArrow=classic;html=1;rounded=0;entryX=-0.003;entryY=0.271;entryDx=0;entryDy=0;entryPerimeter=0;" edge="1" parent="1" source="vnd5Rq-gmxk2DfNvCq53-4" target="vnd5Rq-gmxk2DfNvCq53-13">
          <mxGeometry width="50" height="50" relative="1" as="geometry">
            <mxPoint x="200" y="541" as="sourcePoint" />
            <mxPoint x="260" y="540" as="targetPoint" />
          </mxGeometry>
        </mxCell>
        <mxCell id="vnd5Rq-gmxk2DfNvCq53-18" value="" style="endArrow=classic;html=1;rounded=0;" edge="1" parent="1">
          <mxGeometry width="50" height="50" relative="1" as="geometry">
            <mxPoint x="180" y="642.5" as="sourcePoint" />
            <mxPoint x="180" y="577.5" as="targetPoint" />
          </mxGeometry>
        </mxCell>
        <mxCell id="vnd5Rq-gmxk2DfNvCq53-19" value="Lister les notes d’un élève" style="text;html=1;whiteSpace=wrap;overflow=hidden;rounded=0;" vertex="1" parent="1">
          <mxGeometry x="390" y="460" width="330" height="20" as="geometry" />
        </mxCell>
        <mxCell id="vnd5Rq-gmxk2DfNvCq53-20" value="&lt;h1 style=&quot;margin-top: 0px;&quot;&gt;&lt;font style=&quot;font-size: 13px; font-weight: normal;&quot;&gt;Saisir une note avec coeficient&amp;nbsp;&lt;/font&gt;&lt;/h1&gt;" style="text;html=1;whiteSpace=wrap;overflow=hidden;rounded=0;" vertex="1" parent="1">
          <mxGeometry x="390" y="500" width="330" height="40" as="geometry" />
        </mxCell>
        <mxCell id="vnd5Rq-gmxk2DfNvCq53-21" value="&lt;h1 style=&quot;margin-top: 0px;&quot;&gt;&lt;span style=&quot;font-weight: normal;&quot;&gt;&lt;font style=&quot;font-size: 13px;&quot;&gt;Saisir une appréciation&lt;/font&gt;&lt;/span&gt;&lt;/h1&gt;" style="text;html=1;whiteSpace=wrap;overflow=hidden;rounded=0;" vertex="1" parent="1">
          <mxGeometry x="390" y="540" width="320" height="40" as="geometry" />
        </mxCell>
        <mxCell id="vnd5Rq-gmxk2DfNvCq53-22" value="" style="rounded=1;whiteSpace=wrap;html=1;" vertex="1" parent="1">
          <mxGeometry x="390" y="590" width="320" height="170" as="geometry" />
        </mxCell>
        <mxCell id="vnd5Rq-gmxk2DfNvCq53-23" value="&lt;h1 style=&quot;margin-top: 0px;&quot;&gt;&lt;span style=&quot;font-weight: normal;&quot;&gt;&lt;font style=&quot;font-size: 13px;&quot;&gt;appréciation globale du conseil de classe&lt;/font&gt;&lt;/span&gt;&lt;/h1&gt;" style="text;html=1;whiteSpace=wrap;overflow=hidden;rounded=0;" vertex="1" parent="1">
          <mxGeometry x="404" y="655" width="276" height="45" as="geometry" />
        </mxCell>
        <mxCell id="vnd5Rq-gmxk2DfNvCq53-24" value="&lt;h1 style=&quot;margin-top: 0px;&quot;&gt;&lt;span style=&quot;font-weight: normal;&quot;&gt;&lt;font style=&quot;font-size: 13px;&quot;&gt;Modifier un professeur associé à un cours&lt;/font&gt;&lt;/span&gt;&lt;/h1&gt;" style="text;html=1;whiteSpace=wrap;overflow=hidden;rounded=0;" vertex="1" parent="1">
          <mxGeometry x="404" y="700" width="286" height="40" as="geometry" />
        </mxCell>
        <mxCell id="vnd5Rq-gmxk2DfNvCq53-25" value="&lt;h1 style=&quot;margin-top: 0px;&quot;&gt;&lt;span style=&quot;font-weight: normal;&quot;&gt;&lt;font style=&quot;font-size: 13px;&quot;&gt;&amp;nbsp;Prof. principal&lt;/font&gt;&lt;/span&gt;&lt;/h1&gt;" style="text;html=1;whiteSpace=wrap;overflow=hidden;rounded=0;" vertex="1" parent="1">
          <mxGeometry x="414" y="600" width="306" height="40" as="geometry" />
        </mxCell>
        <mxCell id="vnd5Rq-gmxk2DfNvCq53-26" value="Parent où élève" style="shape=umlActor;verticalLabelPosition=bottom;verticalAlign=top;html=1;outlineConnect=0;" vertex="1" parent="1">
          <mxGeometry x="40" y="860" width="30" height="60" as="geometry" />
        </mxCell>
        <mxCell id="vnd5Rq-gmxk2DfNvCq53-27" value="" style="rounded=1;whiteSpace=wrap;html=1;" vertex="1" parent="1">
          <mxGeometry x="320" y="820" width="410" height="180" as="geometry" />
        </mxCell>
        <mxCell id="vnd5Rq-gmxk2DfNvCq53-28" value="" style="endArrow=classic;html=1;rounded=0;entryX=-0.007;entryY=0.448;entryDx=0;entryDy=0;entryPerimeter=0;" edge="1" parent="1" target="vnd5Rq-gmxk2DfNvCq53-27">
          <mxGeometry width="50" height="50" relative="1" as="geometry">
            <mxPoint x="90" y="900" as="sourcePoint" />
            <mxPoint x="230" y="899.5" as="targetPoint" />
          </mxGeometry>
        </mxCell>
        <mxCell id="vnd5Rq-gmxk2DfNvCq53-29" value="&lt;h1 style=&quot;margin-top: 0px;&quot;&gt;&lt;span style=&quot;font-weight: normal;&quot;&gt;&lt;font style=&quot;font-size: 13px;&quot;&gt;consulter les notes&lt;/font&gt;&lt;/span&gt;&lt;/h1&gt;" style="text;html=1;whiteSpace=wrap;overflow=hidden;rounded=0;" vertex="1" parent="1">
          <mxGeometry x="360" y="840" width="340" height="30" as="geometry" />
        </mxCell>
        <mxCell id="vnd5Rq-gmxk2DfNvCq53-30" value="&lt;h1 style=&quot;margin-top: 0px;&quot;&gt;&lt;span style=&quot;font-weight: normal;&quot;&gt;&lt;font style=&quot;font-size: 13px;&quot;&gt;Consulter un bulletin&lt;/font&gt;&lt;/span&gt;&lt;/h1&gt;" style="text;html=1;whiteSpace=wrap;overflow=hidden;rounded=0;" vertex="1" parent="1">
          <mxGeometry x="360" y="880" width="340" height="50" as="geometry" />
        </mxCell>
        <mxCell id="vnd5Rq-gmxk2DfNvCq53-31" value="&lt;h1 style=&quot;margin-top: 0px;&quot;&gt;&lt;span style=&quot;font-weight: normal;&quot;&gt;&lt;font style=&quot;font-size: 13px;&quot;&gt;exportateur un bulletin&lt;/font&gt;&lt;/span&gt;&lt;/h1&gt;" style="text;html=1;whiteSpace=wrap;overflow=hidden;rounded=0;" vertex="1" parent="1">
          <mxGeometry x="360" y="930" width="350" height="50" as="geometry" />
        </mxCell>
        <mxCell id="vnd5Rq-gmxk2DfNvCq53-34" value="Authentification" style="ellipse;whiteSpace=wrap;html=1;" vertex="1" parent="1">
          <mxGeometry x="70" y="40" width="260" height="80" as="geometry" />
        </mxCell>
        <mxCell id="vnd5Rq-gmxk2DfNvCq53-4" value="Professeur" style="shape=umlActor;verticalLabelPosition=bottom;verticalAlign=top;html=1;outlineConnect=0;" vertex="1" parent="1">
          <mxGeometry x="170" y="500" width="30" height="60" as="geometry" />
        </mxCell>
        <mxCell id="vnd5Rq-gmxk2DfNvCq53-38" value="" style="endArrow=classic;html=1;rounded=0;" edge="1" parent="1">
          <mxGeometry width="50" height="50" relative="1" as="geometry">
            <mxPoint x="370" y="690" as="sourcePoint" />
            <mxPoint x="420" y="640" as="targetPoint" />
          </mxGeometry>
        </mxCell>
        <mxCell id="vnd5Rq-gmxk2DfNvCq53-39" value="" style="endArrow=classic;html=1;rounded=0;entryX=0.051;entryY=0.808;entryDx=0;entryDy=0;entryPerimeter=0;" edge="1" parent="1" target="vnd5Rq-gmxk2DfNvCq53-34">
          <mxGeometry width="50" height="50" relative="1" as="geometry">
            <mxPoint x="60" y="850" as="sourcePoint" />
            <mxPoint x="70" y="410" as="targetPoint" />
          </mxGeometry>
        </mxCell>
        <mxCell id="vnd5Rq-gmxk2DfNvCq53-40" value="" style="endArrow=classic;html=1;rounded=0;entryX=0.654;entryY=1.017;entryDx=0;entryDy=0;entryPerimeter=0;" edge="1" parent="1" target="vnd5Rq-gmxk2DfNvCq53-34">
          <mxGeometry width="50" height="50" relative="1" as="geometry">
            <mxPoint x="240" y="200" as="sourcePoint" />
            <mxPoint x="290" y="150" as="targetPoint" />
          </mxGeometry>
        </mxCell>
        <mxCell id="vnd5Rq-gmxk2DfNvCq53-41" value="" style="endArrow=classic;html=1;rounded=0;entryX=0.438;entryY=1.133;entryDx=0;entryDy=0;entryPerimeter=0;" edge="1" parent="1" target="vnd5Rq-gmxk2DfNvCq53-34">
          <mxGeometry width="50" height="50" relative="1" as="geometry">
            <mxPoint x="180" y="490" as="sourcePoint" />
            <mxPoint x="230" y="440" as="targetPoint" />
          </mxGeometry>
        </mxCell>
      </root>
    </mxGraphModel>
  </diagram>
</mxfile>
